# xmcd
#
# Track frame offsets:
#	150
#	21796
#	33357
#	54203
#	67332
#	83016
#	100997
#	115912
#	131345
#	149886
#	164994
#	185282
#	199613
#	214134
#	233946
#	247184
#
# Disc length: 3431 seconds
# Revision: 0
# Processed by: cddbd v1.5.2PL0 Copyright (c) Steve Scherf et al.
# Submitted via: dBpowerAMP V12.0
#
DISCID=f00d6510
DTITLE=Barbara Nelson - Crazy Western Swing
DYEAR=2011
DGENRE=Country
TTITLE0=Crazy 
TTITLE1=Half As Much 
TTITLE2=Don't It Make Your Brown Eyes Blue
TTITLE3=I'm Gonna Sit Right Down And Write Myself A Letter
TTITLE4=Tennessee Waltz
TTITLE5=Memphis In June
TTITLE6=Straighten Up And Fly Right
TTITLE7=Aren't You Glad You're You
TTITLE8=Home On The Range
TTITLE9=Java Jive
TTITLE10=I Really Don't Want To Know
TTITLE11=Honeysuckle Rose
TTITLE12=I'm Beginning To See The Light
TTITLE13=Dream A Little Dream Of Me
TTITLE14=I Don't Know Enough About You
TTITLE15=Oh Susanna 
EXTD=
EXTT0=
EXTT1=
EXTT2=
EXTT3=
EXTT4=
EXTT5=
EXTT6=
EXTT7=
EXTT8=
EXTT9=
EXTT10=
EXTT11=
EXTT12=
EXTT13=
EXTT14=
EXTT15=
PLAYORDER=
